<svg width="1353" height="895" fill="none" xmlns="http://www.w3.org/2000/svg"><g opacity=".2" filter="url(#a)"><path d="m600.262 298.999-30.816 108.736-59.467 91.092L318.99 428.12l-147.865 48.815 109.54 238.616 209.895 14.366 29.097-13.358 175.559-117.988 123.86-177.846-70.585-128.179-77.623-87.553-84.261 38.681 13.655 55.325Z" fill="#2C58F1"/></g><g style="mix-blend-mode:overlay" filter="url(#b)"><path fill="#D231E0" d="M412.151 247.246h673.821v229.333H412.151z"/><ellipse cx="475.53" cy="316.879" rx="175.127" ry="178.879" fill="#23FF95"/><path d="M909.177 707.579C709.366 744.272 532.933 527.17 469.692 414.033c83.811-118.002 279.786-42.114 539.138-12.092 259.36 30.022 150.11 259.771-99.653 305.638Z" fill="#FFA438"/></g><defs><filter id="a" x="37.125" y="70.993" width="915.951" height="792.924" filterUnits="userSpaceOnUse" color-interpolation-filters="sRGB"><feFlood flood-opacity="0" result="BackgroundImageFix"/><feBlend in="SourceGraphic" in2="BackgroundImageFix" result="shape"/><feGaussianBlur stdDeviation="67" result="effect1_foregroundBlur_618_98"/></filter><filter id="b" x=".403" y="-162" width="1457.33" height="1173.7" filterUnits="userSpaceOnUse" color-interpolation-filters="sRGB"><feFlood flood-opacity="0" result="BackgroundImageFix"/><feBlend in="SourceGraphic" in2="BackgroundImageFix" result="shape"/><feGaussianBlur stdDeviation="150" result="effect1_foregroundBlur_618_98"/></filter></defs></svg>