<svg width="62" height="63" fill="none" xmlns="http://www.w3.org/2000/svg"><path fill-rule="evenodd" clip-rule="evenodd" d="M38.75 21.167h7.75a2.583 2.583 0 0 1 2.583 2.582v6.3a2.583 2.583 0 0 1-1.956 2.506l-8.377 2.094v-.566a5.167 5.167 0 0 0-5.167-5.166h-5.166a5.167 5.167 0 0 0-5.167 5.166v.566l-8.377-2.094a2.583 2.583 0 0 1-1.956-2.506v-6.3a2.583 2.583 0 0 1 2.583-2.583h7.693a2.682 2.682 0 0 0 .114 0H38.75ZM28.417 38.012V34.083h5.166v5.167h-5.166v-1.238Zm-5.115 1.976-9.682-2.42a7.76 7.76 0 0 1-.703-.212V47a2.583 2.583 0 0 0 2.583 2.583h31A2.583 2.583 0 0 0 49.083 47v-9.644c-.229.08-.464.151-.703.211l-9.682 2.42a5.168 5.168 0 0 1-5.115 4.43h-5.166a5.168 5.168 0 0 1-5.115-4.43Zm10.281-26.571a2.583 2.583 0 0 1 2.584 2.582H25.833a2.583 2.583 0 0 1 2.584-2.582h5.166ZM28.417 8.25a7.75 7.75 0 0 0-7.75 7.75H15.5a7.75 7.75 0 0 0-7.75 7.75v6.299c0 .31.018.618.055.92a2.594 2.594 0 0 0-.055.531V47a7.75 7.75 0 0 0 7.75 7.75h31A7.75 7.75 0 0 0 54.25 47V31.5c0-.182-.019-.36-.054-.53.035-.303.054-.61.054-.921v-6.3A7.75 7.75 0 0 0 46.5 16h-5.167a7.75 7.75 0 0 0-7.75-7.749h-5.166Z" fill="#fff"/></svg>