<svg width="62" height="63" fill="none" xmlns="http://www.w3.org/2000/svg"><path fill-rule="evenodd" clip-rule="evenodd" d="M40.577 30.743a2.583 2.583 0 0 0-3.654-3.653l-3.34 3.34V10.833a2.583 2.583 0 0 0-5.166 0V30.43l-3.34-3.34a2.583 2.583 0 1 0-3.654 3.653l7.75 7.75a2.583 2.583 0 0 0 3.654 0l7.75-7.75Zm13.673.757a2.583 2.583 0 0 0-5.167 0v10.333a7.75 7.75 0 0 1-7.75 7.75H20.667a7.75 7.75 0 0 1-7.75-7.75V31.5a2.583 2.583 0 0 0-5.167 0v10.333c0 7.134 5.783 12.917 12.917 12.917h20.666c7.134 0 12.917-5.783 12.917-12.917V31.5Z" fill="#fff"/></svg>