<svg width="62" height="63" fill="none" xmlns="http://www.w3.org/2000/svg"><path fill-rule="evenodd" clip-rule="evenodd" d="M18.437 8.922c-7.916 4.414-13.27 12.87-13.27 22.578 0 14.267 11.566 25.833 25.833 25.833 14.267 0 25.833-11.566 25.833-25.833C56.833 17.233 45.267 5.667 31 5.667c-4.097 0-7.97.953-11.412 2.65-.44.103-.833.316-1.15.605Zm4.677 3.47A20.604 20.604 0 0 1 31 10.832c6.946 0 13.092 3.427 16.84 8.683-1.383.594-2.779 1.782-4.828 4.012-1.228 1.337-1.884 2.679-2.05 4.077-.13 1.105.093 2.13.2 2.62l.036.172.013.067c-.169.136-.52.378-1.2.707-.98.474-2.034 1.233-2.553 2.475-.566 1.355-.24 2.644.274 3.562.486.867 1.214 1.57 1.91 2.116.724.567 1.563 1.08 2.43 1.53a24.6 24.6 0 0 0 5.661 2.069c.144.032.287.063.43.092a20.783 20.783 0 0 1-5.308 5.416c-.874-1.231-2.302-2.772-4.241-3.742-2.004-1.002-4.05-.978-5.938-.27-1.786.67-3.385 1.927-4.795 3.337-.929.93-1.494 2.109-1.466 3.44.003.16.015.316.034.468-6.678-1.5-12.134-6.234-14.636-12.471a8.1 8.1 0 0 0 .932.037c1.641-.03 3.082-.545 4.147-.972.347-.14.64-.261.897-.368.662-.274 1.07-.444 1.485-.53.094-.02.158-.027.196-.03.977.857 1.8 1.844 2.681 2.903.279.334.563.675.86 1.022.566.66 1.223 1.387 1.937 1.955.693.55 1.752 1.207 3.1 1.207.873 0 1.695-.31 2.342-.896.59-.534.903-1.177 1.079-1.678.338-.961.392-2.059.392-2.916 0-.915-.069-1.894-.13-2.73l-.005-.082c-.062-.85-.11-1.519-.11-2.031 0-.6.195-1.058.703-2.06l.05-.097c.479-.94 1.215-4.968 1.215-6.885 0-1.86-.68-4.025-2.005-5.764C30.204 17.476 28.017 16 25.093 16c-.02.001-.111.004-.321-.184-.253-.228-.563-.642-.877-1.28a11.913 11.913 0 0 1-.78-2.145Zm27.459 25.76a20.642 20.642 0 0 0 1.094-6.652 20.62 20.62 0 0 0-1.339-7.332c-.739.06-1.292.44-3.51 2.855-.66.719-.713 1.09-.725 1.19-.023.197.002.32.1.814l.002.004.073.372c.138.7.374 2.063-.431 3.496-.597 1.063-1.593 1.854-2.793 2.519.377.272.85.56 1.406.848a19.435 19.435 0 0 0 4.428 1.618c.642.146 1.216.234 1.695.268ZM38.086 50.727l.128.146c-1.7.633-3.506 1.05-5.384 1.214a6.763 6.763 0 0 1-.41-.284 4.387 4.387 0 0 1-.67-.605c1.078-1.044 1.992-1.66 2.74-1.941.696-.26 1.233-.237 1.813.053.662.331 1.274.849 1.783 1.417Zm-19.567-35.7c.209.604.455 1.21.74 1.792.873 1.77 2.668 4.348 5.837 4.348 1.012 0 1.78.463 2.373 1.243.644.844.948 1.91.948 2.632 0 .6-.195 3.641-.704 4.643l-.05.097c-.478.94-1.214 2.385-1.214 4.302 0 .708.061 1.553.117 2.315l.012.172c.025.337.048.664.067.98l-.36-.432-.002-.003c-.918-1.105-2.1-2.527-3.423-3.685-1.522-1.332-3.235-1.423-4.64-1.13-.943.197-1.98.631-2.75.954-.183.077-.352.147-.5.207-.95.38-1.662.59-2.316.602-.562.01-1.221-.125-2.062-.755a2.6 2.6 0 0 0-.192-.131 20.98 20.98 0 0 1-.067-1.678c0-6.725 3.213-12.7 8.186-16.474Z" fill="#fff"/></svg>