<svg width="62" height="63" fill="none" xmlns="http://www.w3.org/2000/svg"><path fill-rule="evenodd" clip-rule="evenodd" d="M23.896 20.52a7.104 7.104 0 1 1 14.208 0 7.104 7.104 0 0 1-14.208 0ZM31 8.25c-6.777 0-12.27 5.494-12.27 12.27 0 6.778 5.493 12.272 12.27 12.272 6.777 0 12.27-5.494 12.27-12.271C43.27 13.744 37.778 8.25 31 8.25Zm16.675 38.334c-2.714-2.128-8.096-4.75-16.674-4.75-8.579 0-13.961 2.622-16.674 4.75-.188.147-.291.334-.31.623-.021.328.08.78.377 1.226l1.722 2.583a2.583 2.583 0 0 0 2.15 1.15h25.47c.863 0 1.67-.431 2.149-1.15l1.722-2.583c.298-.446.398-.898.377-1.226-.019-.289-.121-.476-.31-.623ZM31 36.667c9.66 0 16.183 2.966 19.862 5.85 3.034 2.38 2.69 6.31 1.043 8.782l-1.722 2.583a7.75 7.75 0 0 1-6.448 3.451h-25.47a7.75 7.75 0 0 1-6.449-3.45l-1.722-2.584c-1.648-2.472-1.99-6.402 1.044-8.781C14.818 39.633 21.34 36.667 31 36.667Z" fill="#fff"/></svg>