<svg width="42" height="42" fill="none" xmlns="http://www.w3.org/2000/svg"><path fill-rule="evenodd" clip-rule="evenodd" d="M14 12.25a7 7 0 1 1 14 0v3.946a12.236 12.236 0 0 1 5.25 10.054c0 6.766-5.485 12.25-12.25 12.25S8.75 33.016 8.75 26.25c0-4.163 2.076-7.84 5.25-10.054V12.25Zm10.5 0v2.257A12.25 12.25 0 0 0 21 14a12.25 12.25 0 0 0-3.5.507V12.25a3.5 3.5 0 1 1 7 0ZM21 17.5A8.75 8.75 0 1 0 21 35a8.75 8.75 0 0 0 0-17.5Zm-2.625 7c0 .777.338 1.476.875 1.957v2.418a1.75 1.75 0 1 0 3.5 0v-2.418a2.625 2.625 0 1 0-4.375-1.957Z" fill="#fff"/></svg>