<svg width="43" height="42" fill="none" xmlns="http://www.w3.org/2000/svg"><path fill-rule="evenodd" clip-rule="evenodd" d="M21.332 8.75c-4.08 0-8.065 1.197-11.065 3.42-2.138 1.583-4.037 3.77-5.258 5.892a5.882 5.882 0 0 0 0 5.876c1.221 2.122 3.12 4.309 5.258 5.893 3 2.222 6.984 3.419 11.065 3.419 4.081 0 8.065-1.197 11.065-3.42 2.139-1.583 4.037-3.77 5.258-5.892a5.882 5.882 0 0 0 0-5.876c-1.22-2.122-3.12-4.309-5.258-5.893-3-2.222-6.984-3.419-11.065-3.419Zm-8.981 6.232c2.316-1.716 5.543-2.732 8.981-2.732 3.438 0 6.665 1.016 8.982 2.732 1.741 1.29 3.32 3.11 4.308 4.826a2.383 2.383 0 0 1 0 2.384c-.988 1.717-2.567 3.537-4.308 4.826-2.317 1.716-5.544 2.732-8.982 2.732-3.438 0-6.665-1.016-8.981-2.732-1.742-1.29-3.32-3.11-4.308-4.826a2.383 2.383 0 0 1 0-2.384c.987-1.717 2.566-3.537 4.308-4.826ZM28.333 21a7 7 0 1 1-4.938-6.692 3.5 3.5 0 1 0 4.63 4.63A7 7 0 0 1 28.333 21Z" fill="#fff"/></svg>