<svg width="43" height="42" fill="none" xmlns="http://www.w3.org/2000/svg"><path fill-rule="evenodd" clip-rule="evenodd" d="M16.854 13.563a4.813 4.813 0 1 1 9.625 0 4.813 4.813 0 0 1-9.625 0Zm4.813-8.313a8.313 8.313 0 1 0 0 16.625 8.313 8.313 0 0 0 0-16.625Zm11.296 25.968C31.124 29.777 27.478 28 21.667 28c-5.81 0-9.457 1.777-11.295 3.218a.536.536 0 0 0-.21.422c-.014.222.054.528.256.83l1.166 1.75c.325.488.871.78 1.456.78h17.254a1.75 1.75 0 0 0 1.456-.78l1.167-1.75c.201-.302.27-.608.255-.83a.536.536 0 0 0-.21-.422ZM21.667 24.5c6.545 0 10.963 2.01 13.455 3.964 2.055 1.611 1.823 4.274.707 5.948l-1.167 1.75a5.25 5.25 0 0 1-4.368 2.338H13.04a5.25 5.25 0 0 1-4.368-2.338l-1.167-1.75c-1.116-1.674-1.348-4.337.707-5.948 2.493-1.955 6.91-3.964 13.455-3.964Z" fill="#fff"/></svg>