<svg width="127" height="42" fill="none" xmlns="http://www.w3.org/2000/svg"><g clip-path="url(#a)"><path d="M31.41 16.355a12.575 12.575 0 0 0-2.228-.198c-6.904 0-12.5 5.596-12.5 12.5 0 1.516.27 2.969.764 4.314-.313.02-.628.029-.946.029-8.284 0-15-6.716-15-15 0-8.284 6.716-15 15-15 7.728 0 14.092 5.845 14.91 13.355Z" fill="#2C58F1"/><circle cx="29.717" cy="29.193" r="9" fill="#F1732C"/><path d="M60.448 10.6c.512 0 .96.192 1.344.576.405.363.608.821.608 1.376v18.496c0 .555-.203 1.024-.608 1.408a2.047 2.047 0 0 1-1.408.544c-.597 0-1.077-.181-1.44-.544-.363-.384-.544-.853-.544-1.408V12.552c0-.555.192-1.013.576-1.376.384-.384.875-.576 1.472-.576Zm14.176 0c.597 0 1.077.192 1.44.576.363.363.544.821.544 1.376v18.496c0 .555-.192 1.024-.576 1.408-.363.363-.853.544-1.472.544-.512 0-.97-.181-1.376-.544a1.915 1.915 0 0 1-.576-1.408V12.552c0-.555.203-1.013.608-1.376.405-.384.875-.576 1.408-.576Zm-14.272 9.312h14.272v3.68H60.352v-3.68Zm34.744-4.352c.555 0 1.013.181 1.376.544.363.363.544.832.544 1.408v13.536c0 .555-.181 1.024-.544 1.408-.363.363-.821.544-1.376.544-.555 0-1.013-.181-1.376-.544-.363-.384-.544-.853-.544-1.408V29.48l.704.288c0 .277-.15.619-.448 1.024-.299.384-.704.768-1.216 1.152a7.769 7.769 0 0 1-1.824.992 6.331 6.331 0 0 1-2.24.384c-1.472 0-2.805-.373-4-1.12-1.195-.768-2.144-1.813-2.848-3.136-.683-1.344-1.024-2.88-1.024-4.608 0-1.75.341-3.285 1.024-4.608.704-1.344 1.643-2.39 2.816-3.136a6.978 6.978 0 0 1 3.904-1.152c.917 0 1.76.139 2.528.416.768.277 1.43.63 1.984 1.056.576.427 1.013.864 1.312 1.312.32.427.48.79.48 1.088l-1.152.416v-2.336c0-.555.181-1.013.544-1.376.363-.384.821-.576 1.376-.576ZM88.632 29.8c.939 0 1.76-.235 2.464-.704.704-.47 1.248-1.11 1.632-1.92.405-.81.608-1.717.608-2.72 0-1.024-.203-1.941-.608-2.752-.384-.81-.928-1.45-1.632-1.92-.704-.47-1.525-.704-2.464-.704-.917 0-1.728.235-2.432.704-.704.47-1.259 1.11-1.664 1.92-.384.81-.576 1.728-.576 2.752 0 1.003.192 1.91.576 2.72.405.81.96 1.45 1.664 1.92s1.515.704 2.432.704Zm21.342-20.48c.469 0 .928.064 1.376.192.448.128.821.341 1.12.64.298.277.448.65.448 1.12 0 .533-.16.96-.48 1.28a1.445 1.445 0 0 1-1.056.448c-.192 0-.48-.043-.864-.128a4.179 4.179 0 0 0-1.12-.16c-.534 0-.95.117-1.248.352-.278.235-.47.512-.576.832-.107.299-.16.565-.16.8v16.352c0 .555-.182 1.024-.544 1.408-.363.363-.822.544-1.376.544-.555 0-1.014-.181-1.376-.544-.363-.384-.544-.853-.544-1.408v-16.32c0-1.515.533-2.795 1.6-3.84 1.066-1.045 2.666-1.568 4.8-1.568Zm.352 6.88c.512 0 .938.17 1.28.512.341.32.512.736.512 1.248s-.171.939-.512 1.28c-.342.32-.768.48-1.28.48h-8.48c-.512 0-.939-.16-1.28-.48-.342-.341-.512-.768-.512-1.28s.17-.928.512-1.248c.341-.341.768-.512 1.28-.512h8.48Zm5.102 0h7.584c.512 0 .939.17 1.28.512.342.341.512.768.512 1.28 0 .49-.17.907-.512 1.248-.341.32-.768.48-1.28.48h-7.584c-.512 0-.938-.17-1.28-.512-.341-.341-.512-.768-.512-1.28 0-.49.171-.896.512-1.216.342-.341.768-.512 1.28-.512Zm3.424-4c.555 0 1.003.192 1.344.576.363.363.544.821.544 1.376v14.24c0 .299.054.544.16.736.128.192.288.33.48.416.214.085.438.128.672.128.256 0 .491-.043.704-.128.214-.107.459-.16.736-.16.299 0 .566.139.8.416.256.277.384.661.384 1.152 0 .597-.33 1.088-.992 1.472a3.97 3.97 0 0 1-2.08.576c-.448 0-.949-.032-1.504-.096a4.575 4.575 0 0 1-1.536-.544c-.469-.299-.864-.747-1.184-1.344-.32-.597-.48-1.419-.48-2.464v-14.4c0-.555.182-1.013.544-1.376a1.916 1.916 0 0 1 1.408-.576Z" fill="#262626"/></g><defs><clipPath id="a"><path fill="#fff" d="M0 0h127v42H0z"/></clipPath></defs></svg>