<svg width="20" height="16" fill="none" xmlns="http://www.w3.org/2000/svg"><path d="M3.59.21C1.729.335.292 1.816.17 3.677.081 5.068 0 6.68 0 8c0 1.32.08 2.931.171 4.322.121 1.861 1.558 3.342 3.419 3.469C5.214 15.9 7.4 16 10 16s4.786-.1 6.41-.21c1.861-.126 3.298-1.607 3.419-3.468C19.919 10.931 20 9.32 20 8c0-1.32-.08-2.932-.171-4.322C19.708 1.817 18.27.336 16.41.21 14.786.1 12.6 0 10 0S5.214.1 3.59.21ZM10 2c-2.55 0-4.69.097-6.275.205-.832.056-1.5.712-1.558 1.603C2.077 5.186 2 6.745 2 8c0 1.255.077 2.814.167 4.192.058.89.726 1.547 1.558 1.603A93.46 93.46 0 0 0 10 14c2.55 0 4.69-.097 6.275-.205.832-.056 1.5-.712 1.558-1.603C17.923 10.814 18 9.255 18 8c0-1.255-.077-2.814-.167-4.192-.058-.89-.726-1.547-1.558-1.603A93.442 93.442 0 0 0 10 2Zm-.448 3.168A1 1 0 0 0 8 6.002v3.997a1 1 0 0 0 1.552.833l2.993-1.981a1.02 1.02 0 0 0 0-1.701L9.552 5.168Z" clip-rule="evenodd" fill="#262626" fill-rule="evenodd"/></svg>